<svg data-v-0dd9719b="" version="1.0" xmlns="http://www.w3.org/2000/svg" xmlns:xlink="http://www.w3.org/1999/xlink" width="100%" height="100%" viewBox="0 0 340.000000 250.000000" preserveAspectRatio="xMidYMid meet" color-interpolation-filters="sRGB" style="margin: auto;"> <rect data-v-0dd9719b="" x="0" y="0" width="100%" height="100%" fill="url(#watermark)" fill-opacity="1" class="watermarklayer"></rect> <g data-v-0dd9719b="" fill="#1A1A1A" class="icon-text-wrapper icon-svg-group iconsvg" transform="translate(47.80113983154297,88.13545227050781)"><g class="iconsvg-imagesvg" transform="translate(0,0)"><g><rect fill="#1A1A1A" fill-opacity="0" stroke-width="2" x="0" y="0" width="60" height="73.72909472959854" class="image-rect"></rect> <svg x="0" y="0" width="60" height="73.72909472959854" filtersec="colorsb5550734303" class="image-svg-svg primary" style="overflow: visible;"><svg xmlns="http://www.w3.org/2000/svg" viewBox="0 0 39.13999938964844 48.096214294433594"><title>a6</title><g data-name="图层 2"><g data-name="Layer 1"><path d="M19.57 0C8.86 0 2.81 4.21 1.4 12.81h11.68c.61-2.19 2.9-3.25 7-3.25 4.83 0 7.28 1.32 7.55 3.95 0 2.54-2.54 4-7.55 4.65C8.34 19.31.26 22.29 0 33.43 0 43.7 7.72 48.88 18.87 48c12.55-.88 20.27-6.58 20.27-19.39v-15.8C38.87 4.21 32.38 0 19.57 0zm-2.19 38.52c-3.69 0-5.62-1.76-5.88-5.44 0-3.42 2.37-5.61 7-6.49a50.6 50.6 0 0 0 9.3-2.81c-.83 1.62-2.6 4.7-4.31 5.42 0 0 3.2-.34 4.31-2v.18c-.26 1-1.32 4.35-3.65 5.25a14.06 14.06 0 0 0 3.3-1.43c-1.09 4.68-4.71 7.32-10.07 7.32z" fill="#1a1a1a"></path><path d="M24.35 27c-2.07.87-3.52.67-6.12 1.2-3.54.67-5.34 2.33-5.34 4.94.2 2.8 1.67 4.14 4.47 4.14 4.08 0 5.79-.81 8.1-4.23a14.75 14.75 0 0 1-4.32 1.12c1.77-.69 4.57-4.6 4.57-4.6-.84 1.26-4.52.51-4.52.51 1.31-.54 3.16-3.08 3.16-3.08z" fill="#ed1c24"></path></g></g></svg></svg> <!----></g></g> <g transform="translate(67,18.734548568725586)"><g data-gra="path-name" fill-rule="" class="tp-name iconsvg-namesvg"><g transform="scale(1)"><g><path d="M21.6-0.92L13.16-26.71 4.76-0.92 4.76-0.96Q4.53-0.38 4.12-0.02 3.72 0.35 3.15 0.35L3.15 0.35Q2.84 0.35 2.55 0.29 2.26 0.23 1.96 0.15L1.96 0.15 2 0.15Q-0.19-0.54 0.38-2.3L0.38-2.3 9.13-28.89Q9.32-29.51 9.8-29.93 10.28-30.35 10.94-30.43L10.94-30.43Q11.59-30.54 12.2-30.6 12.82-30.66 13.16-30.66L13.16-30.66Q13.51-30.66 14.12-30.6 14.73-30.54 15.39-30.47L15.39-30.47Q15.92-30.39 16.44-29.89 16.96-29.39 17.23-28.89L17.23-28.89Q19.38-22.29 21.58-15.6 23.79-8.9 25.94-2.3L25.94-2.3Q26.48-0.54 24.33 0.15L24.33 0.15Q24.02 0.23 23.77 0.29 23.52 0.35 23.21 0.35L23.21 0.35Q22.68 0.35 22.24-0.02 21.79-0.38 21.6-0.96L21.6-0.96 21.6-0.92ZM16.04-9.21L16.04-9.21Q16.04-7.98 15.18-7.12 14.31-6.25 13.08-6.25L13.08-6.25Q11.86-6.25 11.01-7.12 10.17-7.98 10.17-9.21L10.17-9.21Q10.17-10.44 11.01-11.3 11.86-12.16 13.08-12.16L13.08-12.16Q14.31-12.16 15.18-11.3 16.04-10.44 16.04-9.21ZM33.42-29.01L33.42-1.5Q33.42 0.31 31.31 0.31L31.31 0.31Q29.16 0.31 29.16-1.5L29.16-1.5 29.16-29.01Q29.16-30.81 31.31-30.81L31.31-30.81Q33.42-30.81 33.42-29.01L33.42-29.01ZM49.54-2.69L44.89-2.69Q43.9-2.69 42.84-3.03 41.79-3.38 40.79-4.03L40.79-4.03Q38.72-5.37 38.72-8.56L38.72-8.56 38.72-17.23Q38.72-18.84 39.27-19.99 39.83-21.14 40.79-21.79L40.79-21.79Q41.79-22.41 42.82-22.75 43.86-23.1 44.86-23.1L44.86-23.1 51.3-23.1Q52.26-23.1 53.3-22.68 54.33-22.26 55.22-21.6L55.22-21.6Q56.1-20.87 56.64-19.68 57.17-18.49 57.17-17L57.17-17 57.17-0.73Q57.17 0.88 56.66 2.01 56.14 3.15 55.22 3.91L55.22 3.91Q54.33 4.64 53.32 5.05 52.3 5.45 51.3 5.45L51.3 5.45 44.86 5.45Q42.82 5.45 40.75 4.26L40.75 4.26Q39.68 3.65 39.2 2.69 38.72 1.73 38.72 0.46L38.72 0.46 38.72 0Q38.72-0.77 39.22-1.23 39.71-1.69 40.79-1.69L40.79-1.69Q42.94-1.46 42.94 0L42.94 0 42.94 0.42Q42.94 0.84 43.53 1.34 44.13 1.84 45.55 1.84L45.55 1.84 50.34 1.84Q51.76 1.84 52.36 1.04 52.95 0.23 52.95-0.77L52.95-0.77 52.95-16.96Q52.95-17.92 52.36-18.71 51.76-19.49 50.34-19.49L50.34-19.49 45.55-19.49Q44.13-19.49 43.53-18.71 42.94-17.92 42.94-16.96L42.94-16.96 42.94-8.86Q42.94-7.9 43.53-7.08 44.13-6.25 45.55-6.25L45.55-6.25 49.54-6.25Q50.92-6.25 50.92-4.49L50.92-4.49Q50.92-3.68 50.59-3.18 50.27-2.69 49.54-2.69L49.54-2.69ZM68.45-23.1L74.59-23.1Q75.59-23.1 76.65-22.68 77.7-22.26 78.7-21.6L78.7-21.6 78.66-21.6Q79.66-20.87 80.2-19.7 80.73-18.53 80.73-17L80.73-17 80.73-6.1Q80.73-2.95 78.66-1.46L78.66-1.46Q76.63 0 74.59 0L74.59 0 68.45 0Q67.46 0 66.42-0.35 65.38-0.69 64.39-1.46L64.39-1.46Q62.32-2.92 62.32-6.1L62.32-6.1 62.32-17Q62.32-18.53 62.85-19.7 63.39-20.87 64.39-21.6L64.39-21.6 64.35-21.6Q65.31-22.26 66.38-22.68 67.46-23.1 68.45-23.1L68.45-23.1ZM69.15-3.61L73.9-3.61Q75.32-3.61 75.92-4.41 76.51-5.22 76.51-6.14L76.51-6.14 76.51-16.96Q76.51-17.92 75.92-18.71 75.32-19.49 73.9-19.49L73.9-19.49 69.15-19.49Q67.73-19.49 67.13-18.71 66.54-17.92 66.54-16.96L66.54-16.96 66.54-6.14Q66.54-5.22 67.13-4.41 67.73-3.61 69.15-3.61L69.15-3.61ZM102.41 0.04L88.37 0.04Q86.95 0.04 86.45-0.69 85.95-1.42 85.95-2.3L85.95-2.3 85.95-28.16Q85.95-29.05 86.45-29.76 86.95-30.47 88.37-30.47L88.37-30.47 101.72-30.47Q103.14-30.47 103.22-28.55L103.22-28.55Q103.3-26.59 101.72-26.59L101.72-26.59 90.48-26.59 90.48-3.84 102.41-3.84Q103.83-3.84 103.87-1.96L103.87-1.96Q103.95 0.04 102.41 0.04L102.41 0.04ZM100.3-15.85L100.3-15.85Q100.3-14.5 99.36-13.58 98.42-12.66 97.08-12.66L97.08-12.66Q95.77-12.66 94.85-13.58 93.93-14.5 93.93-15.85L93.93-15.85Q93.93-17.19 94.85-18.11 95.77-19.03 97.08-19.03L97.08-19.03Q98.42-19.03 99.36-18.11 100.3-17.19 100.3-15.85ZM118.49 0L113.46 0Q112.27 0 111.2-0.33 110.13-0.65 109.13-1.27L109.13-1.27 109.13-1.23Q107.25-2.42 107.25-5.6L107.25-5.6 107.25-7.48Q107.25-9.06 107.8-10.23 108.36-11.4 109.36-12.09L109.36-12.09 109.32-12.09Q110.28-12.74 111.35-13.07 112.43-13.39 113.43-13.39L113.43-13.39 121.91-13.39 121.91-16.96Q121.91-17.92 121.31-18.71 120.72-19.49 119.3-19.49L119.3-19.49 114.81-19.49Q113.35-19.49 112.79-18.78 112.24-18.07 112.24-17.11L112.24-17.11 112.24-16.81Q112.24-14.81 110.09-14.81L110.09-14.81Q107.94-14.81 107.94-16.81L107.94-16.81 107.94-17.15Q107.94-18.73 108.49-19.8 109.05-20.87 110.01-21.6L110.01-21.6 109.97-21.6Q110.97-22.26 112.06-22.68 113.16-23.1 114.15-23.1L114.15-23.1 119.99-23.1Q120.95-23.1 122.04-22.68 123.13-22.26 124.09-21.6L124.09-21.6 124.05-21.6Q125.05-20.87 125.59-19.7 126.13-18.53 126.13-17L126.13-17 126.13-1.61Q126.13 0.23 124.02 0.23L124.02 0.23Q123.59 0.23 123.23 0.19 122.87 0.15 122.58-0.02 122.29-0.19 122.12-0.52 121.94-0.84 121.94-1.38L121.94-1.38 121.91-9.78 114.15-9.78Q113.31-9.78 112.85-9.59 112.39-9.4 112.12-8.98L112.12-8.98Q111.81-8.33 111.68-7.96 111.55-7.6 111.55-7.14L111.55-7.14 111.55-5.64Q111.55-4.64 112.14-4.12 112.74-3.61 114.19-3.61L114.19-3.61 118.49-3.61Q119.91-3.61 119.91-1.8L119.91-1.8Q119.91-1.04 119.57-0.52 119.22 0 118.49 0L118.49 0ZM135.22-17.46L135.22-1.61Q135.22 0.23 133.11 0.23L133.11 0.23Q130.92 0.23 130.92-1.61L130.92-1.61 130.92-17.5Q130.92-20.64 132.8-21.87L132.8-21.87Q134.68-23.1 137.14-23.1L137.14-23.1 141.51-23.1Q142.93-23.1 142.93-21.3L142.93-21.3Q143.01-19.49 141.51-19.49L141.51-19.49 137.45-19.49Q136.06-19.49 135.64-18.96 135.22-18.42 135.22-17.46L135.22-17.46ZM154.41-19.49L151.22-19.49 151.22-5.53Q151.22-4.53 151.64-3.99 152.07-3.45 153.45-3.45L153.45-3.45 154.44-3.45Q155.94-3.45 155.86-1.69L155.86-1.69Q155.86 0.12 154.44 0.12L154.44 0.12 153.18 0.12Q151.95 0.12 150.88-0.21 149.8-0.54 148.8-1.15L148.8-1.15 148.8-1.11Q146.92-2.34 146.92-5.49L146.92-5.49 146.92-19.49 145.43-19.49Q144.05-19.49 143.97-21.3L143.97-21.3Q143.97-23.1 145.43-23.1L145.43-23.1 146.92-23.1 146.92-27.21Q146.92-29.05 149.11-29.05L149.11-29.05Q151.22-29.05 151.22-27.21L151.22-27.21 151.22-23.1 154.41-23.1Q155.9-23.1 155.83-21.3L155.83-21.3Q155.83-19.49 154.41-19.49L154.41-19.49ZM163.42-19.49L163.42-1.61Q163.42 0.23 161.31 0.23L161.31 0.23Q159.2 0.23 159.2-1.61L159.2-1.61 159.2-28.86Q159.2-30.7 161.31-30.7L161.31-30.7Q163.42-30.7 163.42-28.86L163.42-28.86 163.42-23.1 171.52-23.1Q173.48-23.1 175.59-21.64L175.59-21.64Q177.66-20.18 177.66-17.04L177.66-17.04 177.66-1.61Q177.66 0.23 175.55 0.23L175.55 0.23Q173.44 0.23 173.44-1.61L173.44-1.61 173.44-16.69Q173.44-17.69 172.82-18.61L172.82-18.61 172.86-18.57Q172.36-19.49 170.83-19.49L170.83-19.49 163.42-19.49Z" transform="translate(-0.26228249073028564, 30.809999465942383)"></path></g> <!----> <!----> <!----> <!----> <!----> <!----> <!----></g></g> <!----></g></g><defs v-gra="od"></defs></svg>